# Blender 3.3.1
# www.blender.org
mtllib StubNose38SpecialRevolver.mtl
o Bullet.003
v 0.757828 5.805351 0.051940
v 0.757828 6.068488 0.051940
v 0.715258 5.805351 0.009370
v 0.715258 6.068488 0.009370
v 0.800398 5.805351 0.009370
v 0.800398 6.068488 0.009370
v 0.757828 6.146568 0.030574
v 0.737975 6.146568 0.009370
v 0.777681 6.146568 0.009370
v 0.757828 5.805351 -0.033200
v 0.757828 6.068488 -0.033200
v 0.757828 6.146568 -0.011832
vn 0.7071 -0.0000 0.7071
vn -0.7071 -0.0000 0.7071
vn -0.0000 -1.0000 -0.0000
vn 0.7008 0.1958 0.6860
vn -0.7008 0.1958 0.6860
vn 0.7071 -0.0000 -0.7071
vn -0.7071 -0.0000 -0.7071
vn -0.0000 1.0000 -0.0000
vn 0.7008 0.1958 -0.6860
vn -0.7008 0.1958 -0.6860
vt 0.721409 0.769745
vt 0.872245 0.896722
vt 0.225979 0.761354
vt 0.208918 0.745377
vt 0.770126 0.719124
vt 0.722189 0.654546
vt 0.226760 0.646155
vt 0.209698 0.630177
vt 0.974364 0.719124
vt 0.720628 0.875814
vt 0.225198 0.876553
vt 0.208137 0.860576
vt 0.087423 0.742887
vt 0.089100 0.693729
vt 0.087059 0.789763
vt 0.872245 0.541525
vt 0.721409 0.769745
vt 0.225979 0.761354
vt 0.208918 0.745377
vt 0.087423 0.742887
s 0
usemtl Material.001
f 5/10/1 6/11/1 2/3/1 1/1/1
f 1/1/2 2/3/2 4/7/2 3/6/2
f 1/2/3 3/5/3 10/16/3 5/9/3
f 2/4/4 6/12/4 9/15/4 7/13/4
f 4/8/5 2/4/5 7/13/5 8/14/5
f 5/10/6 10/17/6 11/18/6 6/11/6
f 10/17/7 3/6/7 4/7/7 11/18/7
f 8/14/8 7/13/8 9/15/8 12/20/8
f 11/19/9 12/20/9 9/15/9 6/12/9
f 4/8/10 8/14/10 12/20/10 11/19/10
o SnubNoseBody
v -0.712798 6.115064 -0.000397
v -0.654321 5.315499 -0.000397
v 0.553974 6.596512 0.092331
v 0.470013 6.086557 0.092331
v -0.746333 5.439792 0.099269
v -0.672380 6.036257 0.090986
v -0.902584 5.644604 0.099270
v -0.885845 5.435444 0.099269
v -0.992453 5.310273 -0.000397
v 0.553974 6.625038 -0.000397
v -0.998981 5.672146 -0.000397
v 0.511934 6.038837 -0.000397
v -0.592971 5.688595 -0.000397
v -0.619479 5.853026 0.101131
v -0.655772 6.340404 0.051328
v -0.669923 6.336548 -0.000397
v -0.460224 5.950243 -0.000397
v -0.501731 5.988800 0.099270
v -0.452254 6.398708 -0.000397
v -0.451962 6.397718 0.066714
v -0.347004 6.032635 0.089025
v -0.327877 6.507092 -0.000397
v -0.347004 5.984671 -0.000397
v -0.327877 6.507092 0.089025
v -0.291318 6.083794 0.092331
v -0.208411 6.647122 -0.000397
v -0.291317 6.031219 -0.000397
v -0.214493 6.610857 0.092331
v 0.392451 6.111752 0.092331
v 0.451495 6.649480 -0.000397
v 0.392451 6.584962 0.092331
v 0.392451 6.623609 0.092331
v -0.117315 6.579491 0.092331
v -0.116377 6.623609 0.092331
v -0.124377 6.105372 0.092331
v -0.115777 6.646605 -0.000397
v 0.556065 6.308826 0.092331
v 0.556065 6.308826 -0.000397
v -0.995717 5.491210 -0.000397
v -0.337441 6.245882 0.089025
v 0.392451 6.183849 0.092331
v -0.122461 6.181032 0.092331
v 0.392451 6.584962 -0.000397
v -0.117315 6.579491 -0.000397
v 0.392451 6.183849 -0.000397
v -0.122461 6.181032 -0.000397
v -0.128388 5.717760 0.019892
v 0.138278 5.734598 0.019892
v -0.146514 5.692367 -0.000397
v 0.142446 5.703680 -0.000397
v 0.254753 5.846971 0.019892
v 0.283909 5.835870 -0.000397
v 0.259529 5.983582 0.019892
v 0.288685 5.972481 -0.000397
v -0.213123 5.903928 0.019892
v -0.243290 5.895970 -0.000397
v -0.196083 6.098589 0.013541
v -0.354526 5.989541 -0.000397
v 0.187216 6.045942 0.019892
v 0.347730 6.038823 -0.000397
v 0.556185 6.358891 -0.000397
v 0.666201 6.358891 -0.000397
v 0.556185 6.411558 -0.000397
v 0.666201 6.411558 -0.000397
v 0.385033 6.521263 0.088281
v 0.921172 6.521263 0.088281
v 0.385033 6.432946 -0.000397
v 0.385033 6.609581 -0.000397
v 0.921172 6.432946 -0.000397
v 0.921172 6.609581 -0.000397
v 0.688216 6.396594 0.039260
v 0.781714 6.396594 0.039260
v 0.688216 6.357297 -0.000397
v 0.688216 6.435891 -0.000397
v 0.760664 6.357297 -0.000397
v 0.833851 6.435891 -0.000397
v 0.553974 6.596512 -0.093125
v 0.470013 6.086557 -0.093125
v -0.746333 5.439792 -0.100065
v -0.672380 6.036257 -0.091780
v -0.902584 5.644604 -0.100065
v -0.885845 5.435444 -0.100065
v -0.619479 5.853026 -0.101925
v -0.655772 6.340404 -0.052122
v -0.501731 5.988800 -0.100065
v -0.451962 6.397718 -0.067508
v -0.347004 6.032635 -0.089820
v -0.327877 6.507092 -0.089820
v -0.291318 6.083794 -0.093125
v -0.214493 6.610857 -0.093125
v 0.392451 6.111752 -0.093125
v 0.392451 6.584962 -0.093125
v 0.392451 6.623609 -0.093125
v -0.117315 6.579491 -0.093125
v -0.116377 6.623609 -0.093125
v -0.124377 6.105372 -0.093125
v 0.556065 6.308826 -0.093125
v -0.337441 6.245882 -0.089820
v 0.392451 6.183849 -0.093125
v -0.122461 6.181032 -0.093125
v -0.128388 5.717760 -0.020686
v 0.138278 5.734598 -0.020686
v 0.254753 5.846971 -0.020686
v 0.259529 5.983582 -0.020686
v -0.213123 5.903928 -0.020686
v -0.196083 6.098589 -0.014335
v 0.187216 6.045942 -0.020686
v 0.385033 6.521263 -0.089074
v 0.921172 6.521263 -0.089074
v 0.688216 6.396594 -0.040053
v 0.781714 6.396594 -0.040053
v 0.795121 6.609168 0.000001
v 0.920911 6.610065 0.000001
v 0.823686 6.667358 0.000001
v 0.897281 6.666027 0.000001
v 0.823685 6.667360 0.009921
v 0.897077 6.666201 0.009921
v 0.823685 6.667360 -0.010060
v 0.897077 6.666201 -0.010060
v 0.795124 6.609718 0.009921
v 0.795124 6.609718 -0.010060
vn -0.6283 0.3954 0.6700
vn 0.0125 -0.6246 0.7808
vn 0.0053 -0.8017 0.5977
vn 1.0000 0.0069 0.0011
vn -0.2730 0.9620 0.0100
vn -0.0662 0.0419 0.9969
vn -0.7019 -0.0360 0.7113
vn -0.9008 0.1331 0.4132
vn 0.7191 -0.1737 0.6729
vn -0.6594 0.7518 0.0060
vn 0.6549 -0.4098 0.6349
vn -0.7193 0.6855 0.1125
vn 0.2663 -0.8530 0.4488
vn -0.0610 0.9514 0.3018
vn 0.6019 -0.6991 0.3859
vn -0.0000 -0.0000 1.0000
vn 0.1809 0.9267 0.3294
vn -1.0000 -0.0000 -0.0000
vn -0.9999 0.0129 -0.0000
vn -0.0026 0.9672 0.2540
vn -0.6752 -0.0122 0.7375
vn 0.9299 -0.2459 0.2735
vn -0.0155 0.0136 0.9998
vn -0.0603 0.0957 0.9936
vn -0.0428 0.0041 0.9991
vn -0.1117 0.8645 -0.4901
vn -0.0055 1.0000 -0.0000
vn 0.0107 -0.9999 -0.0000
vn -0.0299 0.5892 -0.8074
vn -0.4162 0.4389 -0.7963
vn -0.5660 0.0198 -0.8242
vn 0.5205 0.2424 -0.8187
vn 0.1601 0.0306 -0.9866
vn -0.2112 -0.0218 -0.9772
vn 1.0000 -0.0000 -0.0000
vn -0.0000 -0.7085 0.7057
vn -0.0000 0.7085 0.7057
vn 0.7035 -0.6551 0.2757
vn -0.0000 -0.7103 0.7039
vn -0.0000 0.7103 0.7039
vn -0.6283 0.3954 -0.6700
vn 0.0125 -0.6246 -0.7808
vn 0.0053 -0.8017 -0.5977
vn 1.0000 0.0069 -0.0011
vn -0.2730 0.9620 -0.0100
vn -0.0662 0.0419 -0.9969
vn -0.7019 -0.0360 -0.7113
vn -0.9008 0.1331 -0.4132
vn 0.7191 -0.1737 -0.6729
vn -0.6594 0.7518 -0.0060
vn 0.6549 -0.4098 -0.6349
vn -0.7193 0.6855 -0.1125
vn 0.2663 -0.8530 -0.4488
vn -0.0610 0.9514 -0.3018
vn 0.6019 -0.6991 -0.3859
vn -0.0000 -0.0000 -1.0000
vn 0.1809 0.9267 -0.3294
vn -0.0026 0.9672 -0.2540
vn -0.6752 -0.0122 -0.7375
vn 0.9299 -0.2459 -0.2735
vn -0.0155 0.0136 -0.9998
vn -0.0603 0.0957 -0.9936
vn -0.0428 0.0041 -0.9991
vn -0.1117 0.8645 0.4901
vn -0.0299 0.5892 0.8074
vn -0.4162 0.4389 0.7963
vn -0.5660 0.0198 0.8242
vn 0.5205 0.2424 0.8187
vn 0.1601 0.0306 0.9866
vn -0.2112 -0.0218 0.9772
vn -0.0000 -0.7085 -0.7057
vn -0.0000 0.7085 -0.7057
vn 0.7035 -0.6551 -0.2757
vn -0.0000 -0.7103 -0.7039
vn -0.0000 0.7103 -0.7039
vn 0.0158 0.9999 -0.0000
vn -0.8960 0.4440 -0.0000
vt 0.141966 0.550751
vt 0.158371 0.564532
vt 0.147056 0.244747
vt 0.582360 0.748078
vt 0.629603 0.744708
vt 0.340063 0.673039
vt 0.596868 0.545887
vt 0.578494 0.553762
vt 0.122641 0.293727
vt 0.161317 0.528901
vt 0.151474 0.526276
vt 0.061722 0.373579
vt 0.068248 0.292032
vt 0.026684 0.243231
vt 0.621110 0.745953
vt 0.337760 0.677851
vt 0.029868 0.383275
vt 0.613212 0.527282
vt 0.594838 0.535157
vt 0.169933 0.400626
vt 0.169933 0.412084
vt 0.172098 0.466297
vt 0.172098 0.454838
vt 0.245247 0.607389
vt 0.174875 0.626430
vt 0.158470 0.634961
vt 0.242057 0.606520
vt 0.169358 0.624926
vt 0.215439 0.506804
vt 0.234189 0.496022
vt 0.218006 0.519232
vt 0.198735 0.510378
vt 0.218006 0.507774
vt 0.291119 0.620531
vt 0.290818 0.626252
vt 0.291185 0.620307
vt 0.240035 0.655391
vt 0.290884 0.626029
vt 0.237931 0.657307
vt 0.231094 0.750000
vt 0.278331 0.524864
vt 0.318852 0.650681
vt 0.336893 0.527490
vt 0.278331 0.506164
vt 0.288412 0.698033
vt 0.318852 0.650681
vt 0.316084 0.544787
vt 0.625000 0.893906
vt 0.289725 0.695408
vt 0.300042 0.544810
vt 0.250881 0.750000
vt 0.304669 0.494599
vt 0.207345 0.620037
vt 0.300042 0.524312
vt 0.250881 0.624422
vt 0.288347 0.515135
vt 0.209246 0.613427
vt 0.329994 0.750301
vt 0.566628 0.555710
vt 0.318497 0.673703
vt 0.329624 0.686097
vt 0.340150 0.586065
vt 0.566628 0.740204
vt 0.310623 0.664572
vt 0.566628 0.755272
vt 0.336627 0.527427
vt 0.236510 0.610441
vt 0.367882 0.738072
vt 0.224772 0.623499
vt 0.368248 0.755272
vt 0.365128 0.553223
vt 0.271742 0.750000
vt 0.223016 0.627427
vt 0.580824 0.598809
vt 0.630418 0.632545
vt 0.603513 0.630577
vt 0.608763 0.626639
vt 0.621048 0.602754
vt 0.608763 0.626639
vt 0.025411 0.313774
vt 0.500000 0.893906
vt 0.332049 0.532933
vt 0.566628 0.576601
vt 0.566628 0.583819
vt 0.354246 0.572128
vt 0.249514 0.557694
vt 0.365875 0.575503
vt 0.235678 0.568804
vt 0.307409 0.681715
vt 0.333043 0.574725
vt 0.334170 0.510153
vt 0.231292 0.598063
vt 0.308873 0.539959
vt 0.350140 0.585995
vt 0.248606 0.538822
vt 0.240505 0.583102
vt 0.270555 0.583166
vt 0.312544 0.585817
vt 0.267700 0.579168
vt 0.313200 0.580949
vt 0.330884 0.603512
vt 0.335475 0.601764
vt 0.331636 0.625022
vt 0.514805 0.505739
vt 0.336227 0.623275
vt 0.526172 0.501412
vt 0.257212 0.612480
vt 0.330528 0.474684
vt 0.252462 0.611227
vt 0.322487 0.476955
vt 0.337172 0.550578
vt 0.283252 0.515090
vt 0.486612 0.530053
vt 0.547952 0.534304
vt 0.630465 0.650632
vt 0.779857 0.650632
vt 0.630465 0.667260
vt 0.779857 0.667260
vt 0.642040 0.715370
vt 0.644124 0.715370
vt 0.800234 0.296126
vt 0.721895 0.294595
vt 0.981300 0.715370
vt 0.642040 0.680937
vt 0.757902 0.250249
vt 0.644124 0.749803
vt 0.755307 0.344283
vt 0.768334 0.247710
vt 0.981300 0.680937
vt 0.768700 0.342178
vt 0.981300 0.749803
vt 0.796314 0.658889
vt 0.833458 0.687818
vt 0.847213 0.666764
vt 0.855088 0.658889
vt 0.796314 0.643569
vt 0.728746 0.740174
vt 0.796314 0.674210
vt 0.833458 0.740174
vt 0.839006 0.651443
vt 0.846881 0.643569
vt 0.867540 0.682085
vt 0.871477 0.680772
vt 0.582360 0.748078
vt 0.629603 0.744708
vt 0.340063 0.673039
vt 0.596868 0.545887
vt 0.578494 0.553762
vt 0.122641 0.293727
vt 0.161317 0.528901
vt 0.151474 0.526276
vt 0.061722 0.373579
vt 0.068248 0.292032
vt 0.172098 0.466297
vt 0.172098 0.454838
vt 0.245247 0.607389
vt 0.174875 0.626430
vt 0.158470 0.634961
vt 0.218006 0.519232
vt 0.198735 0.510378
vt 0.218006 0.507774
vt 0.291185 0.620307
vt 0.240035 0.655391
vt 0.290884 0.626029
vt 0.237931 0.657307
vt 0.231094 0.750000
vt 0.278331 0.524864
vt 0.288412 0.698033
vt 0.318852 0.650681
vt 0.316084 0.544787
vt 0.625000 0.893906
vt 0.289725 0.695408
vt 0.300042 0.544810
vt 0.250881 0.750000
vt 0.288347 0.515135
vt 0.209246 0.613427
vt 0.329994 0.750301
vt 0.566628 0.555710
vt 0.329624 0.686097
vt 0.340150 0.586065
vt 0.566628 0.740204
vt 0.310623 0.664572
vt 0.566628 0.755272
vt 0.336627 0.527427
vt 0.236510 0.610441
vt 0.367882 0.738072
vt 0.224772 0.623499
vt 0.368248 0.755272
vt 0.365128 0.553223
vt 0.271742 0.750000
vt 0.580824 0.598809
vt 0.630418 0.632545
vt 0.603513 0.630577
vt 0.608763 0.626639
vt 0.500000 0.893906
vt 0.332049 0.532933
vt 0.566628 0.576601
vt 0.566628 0.583819
vt 0.354246 0.572128
vt 0.249514 0.557694
vt 0.365875 0.575503
vt 0.235678 0.568804
vt 0.270555 0.583166
vt 0.312544 0.585817
vt 0.330884 0.603512
vt 0.331636 0.625022
vt 0.514805 0.505739
vt 0.257212 0.612480
vt 0.330528 0.474684
vt 0.337172 0.550578
vt 0.486612 0.530053
vt 0.642040 0.715370
vt 0.644124 0.715370
vt 0.800234 0.296126
vt 0.721895 0.294595
vt 0.981300 0.715370
vt 0.796314 0.658889
vt 0.833458 0.687818
vt 0.847213 0.666764
vt 0.855088 0.658889
vt 0.269504 0.586170
vt 0.330496 0.586170
vt 0.269504 0.647163
vt 0.330496 0.647163
vt 0.269504 0.586170
vt 0.330496 0.586170
vt 0.269504 0.647163
vt 0.330496 0.647163
vt 0.269504 0.586170
vt 0.269504 0.647163
s 0
usemtl Material.004
f 13/21/11 23/37/11 19/32/11 18/31/11
f 21/34/12 14/23/12 17/29/12 20/33/12
f 39/74/13 24/38/13 16/27/13 41/79/13 47/91/13 37/70/13
f 50/98/14 22/35/14 15/24/14 49/94/14
f 31/54/15 28/47/15 27/44/15 32/56/15
f 36/65/16 32/57/16 30/53/16 33/61/16
f 20/33/17 19/32/17 23/37/17 51/100/17
f 28/48/18 13/22/18 18/30/18 27/45/18
f 14/23/19 25/40/19 26/43/19 17/29/19
f 34/62/20 31/55/20 32/58/20 36/66/20
f 25/41/21 29/49/21 30/51/21 26/42/21
f 38/72/22 34/63/22 36/67/22 40/76/22
f 29/50/23 35/64/23 33/61/23 30/52/23
f 48/93/24 38/73/24 40/77/24 46/89/24
f 35/64/25 39/74/25 37/70/25 33/61/25
f 49/95/26 15/25/26 44/85/26 43/83/26 53/104/26
f 22/36/27 42/80/27 44/84/27 15/26/27
f 53/102/28 43/81/28 55/109/28 57/113/28
f 54/106/29 45/86/29 56/111/29 58/115/29
f 42/80/30 48/93/30 46/89/30 44/84/30
f 41/79/26 53/103/26 54/107/26 47/91/26
f 16/27/26 49/96/26 53/104/26 41/79/26
f 20/33/31 51/100/31 21/34/31
f 24/39/32 50/99/32 49/97/32 16/28/32
f 26/43/33 18/31/33 19/32/33 20/33/33 17/29/33
f 27/46/34 18/31/34 26/43/34 30/53/34 32/59/34
f 52/101/26 36/68/26 33/60/26
f 46/90/26 40/78/26 37/70/26 47/91/26
f 37/70/35 40/78/35 36/69/35 33/61/35
f 37/71/36 47/92/36 39/75/36
f 54/108/37 53/105/37 57/114/37 58/116/37
f 43/82/38 45/87/38 56/112/38 55/110/38
f 44/85/26 46/90/26 45/88/26 43/83/26
f 59/117/39 60/118/39 62/120/39 61/119/39
f 62/120/40 60/118/40 63/121/40 64/122/40
f 64/122/41 63/121/41 65/123/41 66/125/41
f 59/117/42 61/119/42 68/129/42 67/127/42
f 67/128/43 68/130/43 70/132/43 69/131/43
f 66/126/44 65/124/44 71/133/44 72/134/44
f 73/135/26 74/136/26 76/138/26 75/137/26
f 81/148/45 82/150/45 78/142/45
f 79/144/46 81/149/46 78/143/46 77/139/46
f 82/151/47 80/146/47 77/140/47 78/143/47
f 77/141/28 80/147/28 79/145/28
f 87/160/48 88/162/48 84/154/48
f 85/156/49 87/161/49 84/155/49 83/152/49
f 88/163/50 86/158/50 83/152/50 84/155/50
f 83/153/28 86/159/28 85/157/28
f 13/21/51 92/171/51 93/172/51 23/37/51
f 21/34/52 94/173/52 91/169/52 14/23/52
f 39/74/53 101/193/53 108/209/53 103/198/53 90/167/53 24/38/53
f 50/98/54 109/211/54 89/164/54 22/35/54
f 31/54/55 98/182/55 96/176/55 28/47/55
f 100/188/56 99/187/56 97/181/56 98/183/56
f 94/173/57 51/100/57 23/37/57 93/172/57
f 28/48/58 96/177/58 92/170/58 13/22/58
f 14/23/59 91/169/59 95/175/59 25/40/59
f 34/62/60 100/189/60 98/184/60 31/55/60
f 25/41/61 95/174/61 97/179/61 29/49/61
f 38/72/62 102/195/62 100/190/62 34/63/62
f 29/50/63 97/180/63 99/187/63 35/64/63
f 48/93/64 107/207/64 102/196/64 38/73/64
f 35/64/65 99/187/65 101/193/65 39/74/65
f 109/212/66 111/218/66 104/201/66 105/203/66 89/165/66
f 22/36/67 89/166/67 105/202/67 42/80/67
f 111/216/28 57/113/28 55/109/28 104/199/28
f 112/220/29 58/115/29 56/111/29 106/204/29
f 42/80/68 105/202/68 107/207/68 48/93/68
f 103/198/66 108/209/66 112/221/66 111/217/66
f 90/167/66 103/198/66 111/218/66 109/213/66
f 94/173/69 21/34/69 51/100/69
f 24/39/70 90/168/70 109/214/70 50/99/70
f 95/175/71 91/169/71 94/173/71 93/172/71 92/171/71
f 96/178/72 98/185/72 97/181/72 95/175/72 92/171/72
f 110/215/66 99/186/66 100/191/66
f 107/208/66 108/209/66 101/193/66 102/197/66
f 101/193/73 99/187/73 100/192/73 102/197/73
f 101/194/74 39/75/74 108/210/74
f 112/222/37 58/116/37 57/114/37 111/219/37
f 104/200/38 55/110/38 56/112/38 106/205/38
f 105/203/66 104/201/66 106/206/66 107/208/66
f 113/223/75 61/119/75 62/120/75 114/224/75
f 62/120/76 64/122/76 115/225/76 114/224/76
f 64/122/77 66/125/77 116/226/77 115/225/77
f 113/223/78 117/228/78 68/129/78 61/119/78
f 117/229/79 118/230/79 70/132/79 68/130/79
f 66/126/80 72/134/80 119/231/80 116/227/80
f 81/148/45 121/235/45 82/150/45
f 79/144/81 120/232/81 121/236/81 81/149/81
f 82/151/82 121/236/82 120/233/82 80/146/82
f 120/234/28 79/145/28 80/147/28
f 87/160/83 123/239/83 88/162/83
f 85/156/84 122/237/84 123/240/84 87/161/84
f 88/163/85 123/240/85 122/237/85 86/158/85
f 122/238/28 85/157/28 86/159/28
f 124/241/26 125/242/26 127/244/26 126/243/26
f 128/245/86 129/246/86 131/248/86 130/247/86
f 128/245/87 130/247/87 133/250/87 132/249/87
o SnubNoseCylinder
v -0.102436 6.300327 0.170477
v -0.102436 6.484883 0.170477
v 0.373746 6.300327 0.170477
v 0.373746 6.484883 0.170477
v -0.102436 6.199222 -0.001155
v -0.102436 6.578006 -0.001155
v 0.373746 6.199222 -0.001155
v 0.373746 6.578006 -0.001155
v -0.102436 6.300327 -0.172787
v -0.102436 6.484883 -0.172787
v 0.373746 6.300327 -0.172787
v 0.373746 6.484883 -0.172787
vn 1.0000 -0.0000 -0.0000
vn -0.0000 -0.0000 1.0000
vn -0.0000 -0.8616 0.5076
vn -0.0000 0.8790 0.4769
vn -1.0000 -0.0000 -0.0000
vn -0.0000 -0.0000 -1.0000
vn -0.0000 -0.8616 -0.5076
vn -0.0000 0.8790 -0.4769
vt 0.662013 0.677796
vt 0.393928 0.025841
vt 0.662013 0.841220
vt 0.508236 0.239077
vt 0.005782 0.790606
vt 0.967003 0.677796
vt 0.152511 0.986400
vt 0.967003 0.841220
vt 0.662013 0.588267
vt 0.132591 0.015107
vt 0.662013 0.923680
vt 0.367198 0.452754
vt 0.107566 0.546828
vt 0.967003 0.588267
vt 0.408713 0.948676
vt 0.967003 0.923680
vt 0.662013 0.677796
vt -0.003503 0.238007
vt 0.662013 0.841220
vt 0.110805 0.451243
vt 0.005782 0.790606
vt 0.967003 0.677796
vt 0.152511 0.986400
vt 0.967003 0.841220
s 0
usemtl Material.024
f 140/263/88 141/265/88 137/257/88 136/255/88
f 136/256/89 137/258/89 135/253/89 134/251/89
f 138/259/90 140/264/90 136/256/90 134/251/90
f 141/266/91 139/261/91 135/253/91 137/258/91
f 134/252/92 135/254/92 139/262/92 138/260/92
f 140/263/88 144/271/88 145/273/88 141/265/88
f 144/272/93 142/267/93 143/269/93 145/274/93
f 138/259/94 142/267/94 144/272/94 140/264/94
f 141/266/95 145/274/95 143/269/95 139/261/95
f 142/268/92 138/260/92 139/262/92 143/270/92
o SnubNoseTrigger&Hammer
v -0.032881 5.855425 -0.000753
v 0.011468 5.903573 -0.000753
v -0.159710 6.051585 0.001895
v 0.076240 6.163563 -0.000753
v -0.047050 5.959831 -0.000753
v 0.056178 5.987719 -0.000753
v 0.112836 5.758778 -0.000753
v -0.522909 6.351776 0.003838
v -0.326093 6.586098 0.004040
v -0.330257 6.401410 0.003839
v -0.274842 6.575022 0.004040
v -0.401661 6.469934 0.003838
v -0.401661 6.469934 -0.015884
v -0.522909 6.351776 -0.015884
v -0.326093 6.586098 -0.015884
v -0.330257 6.401410 -0.015884
v -0.274842 6.575022 -0.015884
v -0.388611 6.512630 -0.015884
v -0.388611 6.512630 0.003838
v -0.535788 6.550888 0.003839
v -0.535788 6.550888 -0.015884
v -0.468083 6.554126 -0.015884
v -0.468083 6.554126 0.003355
vn 0.0104 -0.0063 0.9999
vn -0.0000 -0.0000 1.0000
vn 0.9526 -0.3041 -0.0000
vn -0.0006 -0.0005 1.0000
vn 0.2112 0.9774 -0.0000
vn 0.0019 0.0072 1.0000
vn -0.4628 -0.8864 -0.0000
vn 0.5167 0.8561 -0.0000
vn 0.0478 -0.9989 -0.0000
vn -0.7616 0.6481 -0.0000
vn -0.0000 -0.0000 -1.0000
vn -0.6979 0.7162 -0.0000
vt 0.421673 0.678537
vt 0.481994 0.678537
vt 0.419589 0.715941
vt 0.479910 0.715941
vt 0.419589 0.699444
vt 0.479910 0.699444
vt 0.481994 0.678537
vt 0.373181 0.713690
vt 0.398604 0.695148
vt 0.537574 0.713690
vt 0.510107 0.693552
vt 0.375000 0.750000
vt 0.373181 0.677421
vt 0.625000 0.750000
vt 0.537574 0.677421
vt 0.509399 0.693389
vt 0.463834 0.713690
vt 0.459102 0.643648
vt 0.464523 0.694168
vt 0.000000 0.000000
vt 0.459102 0.643648
vt 0.464568 0.701081
vt 0.506947 0.668347
vt 0.398480 0.703302
vt 0.510249 0.700160
vt 0.416453 0.632531
vt 0.375000 0.624139
vt 0.472596 0.615212
vt 0.625000 0.624139
vt 0.509525 0.699331
vt 0.414641 0.615953
vt 0.000000 0.000000
vt 0.480167 0.701019
vt 0.444907 0.644005
vt 0.488485 0.713690
vt 0.444907 0.644005
vt 0.480086 0.694034
vt 0.448166 0.692258
vt 0.471299 0.697047
vt 0.000000 0.000000
vt 0.471376 0.705861
vt 0.000000 0.000000
vt 0.484968 0.703289
vt 0.440380 0.672156
vt 0.484825 0.692510
s 0
usemtl Material.043
f 150/279/96 151/280/96 149/278/96 148/277/96
f 146/275/97 147/276/97 151/280/97 150/279/97
f 147/276/97 146/275/97 152/281/97
f 161/301/98 162/303/98 156/288/98 155/286/98
f 155/287/99 156/289/99 154/284/99 164/309/99 157/291/99 153/282/99
f 162/304/100 160/299/100 154/285/100 156/290/100
f 157/292/101 164/310/101 168/318/101 165/312/101
f 163/307/102 164/311/102 168/319/102 167/317/102
f 158/294/97 163/306/97 167/316/97 166/314/97
f 157/293/103 158/296/103 166/315/103 165/313/103
f 167/317/104 168/319/104 165/313/104 166/315/104
f 164/311/105 154/285/105 160/299/105 163/307/105
f 160/300/106 162/305/106 161/302/106 163/308/106
f 161/302/106 159/297/106 158/295/106 163/308/106
f 159/298/107 153/283/107 157/293/107 158/296/107
o SnubNoseCylinderFull
v -0.102436 6.300327 -0.284107
v -0.102436 6.484883 -0.284107
v 0.373746 6.300327 -0.284107
v 0.373746 6.484883 -0.284107
v -0.102436 6.199222 -0.455739
v -0.102436 6.578006 -0.455739
v 0.373746 6.199222 -0.455739
v 0.373746 6.578006 -0.455739
v -0.102436 6.300327 -0.627371
v -0.102436 6.484883 -0.627371
v 0.373746 6.300327 -0.627371
v 0.373746 6.484883 -0.627371
vn 1.0000 -0.0000 -0.0000
vn -0.0000 -0.0000 1.0000
vn -0.0000 -0.8616 0.5076
vn -0.0000 0.8790 0.4769
vn -1.0000 -0.0000 -0.0000
vn -0.0000 -0.0000 -1.0000
vn -0.0000 -0.8616 -0.5076
vn -0.0000 0.8790 -0.4769
vt 0.662013 0.677796
vt 0.890898 0.025841
vt 0.662013 0.841220
vt 1.005206 0.239077
vt 0.005782 0.790606
vt 0.967003 0.677796
vt 0.152511 0.986400
vt 0.967003 0.841220
vt 0.662013 0.588267
vt 0.629561 0.015107
vt 0.662013 0.923680
vt 0.864168 0.452754
vt 0.107566 0.546828
vt 0.967003 0.588267
vt 0.408713 0.948676
vt 0.967003 0.923680
vt 0.662013 0.677796
vt 0.493467 0.238007
vt 0.662013 0.841220
vt 0.607775 0.451243
vt 0.005782 0.790606
vt 0.967003 0.677796
vt 0.152511 0.986400
vt 0.967003 0.841220
s 0
usemtl Material.024
f 175/332/108 176/334/108 172/326/108 171/324/108
f 171/325/109 172/327/109 170/322/109 169/320/109
f 173/328/110 175/333/110 171/325/110 169/320/110
f 176/335/111 174/330/111 170/322/111 172/327/111
f 169/321/112 170/323/112 174/331/112 173/329/112
f 175/332/108 179/340/108 180/342/108 176/334/108
f 179/341/113 177/336/113 178/338/113 180/343/113
f 173/328/114 177/336/114 179/341/114 175/333/114
f 176/335/115 180/343/115 178/338/115 174/330/115
f 177/337/112 173/329/112 174/331/112 178/339/112
