# Blender 3.3.1
# www.blender.org
mtllib ColtPyton.mtl
o CPBody
v -0.098997 8.414082 0.020726
v 0.090313 8.414328 0.020726
v -0.109640 8.377224 -0.000313
v 0.099973 8.376974 -0.000313
v -0.255594 8.564601 0.020727
v -0.266237 8.527746 -0.000312
v 0.226406 8.542094 0.019607
v 0.257954 8.519491 -0.000312
v 0.219259 8.674580 0.020727
v 0.261842 8.673061 -0.000312
v 0.198621 8.733318 0.020727
v 0.296798 8.731800 -0.000312
v 0.601039 9.364712 0.093886
v 0.526903 8.788218 0.093885
v -0.885623 8.523386 0.133361
v -1.054553 7.994705 0.133360
v -1.175099 7.883576 -0.000313
v 0.601039 9.386278 -0.000311
v -1.013705 8.513968 -0.000312
v 0.526903 8.722835 -0.000312
v -0.688515 8.874205 0.133361
v -0.672808 8.010210 0.133360
v -0.544726 7.895314 -0.000313
v -0.688515 9.048861 -0.000312
v -0.429009 8.683494 0.133361
v -0.379286 9.104038 -0.000312
v -0.379286 9.104038 0.093885
v -0.429009 8.589315 -0.000312
v -0.244391 8.799117 0.094114
v -0.215794 9.386278 -0.000311
v -0.157842 9.364712 0.093886
v -0.164693 8.731637 -0.000312
v -0.264257 8.524826 -0.000312
v -0.280067 8.596865 0.093885
v -0.533902 8.970637 0.133361
v -0.556562 8.514977 -0.000312
v -0.636613 8.582470 0.133361
v -0.533902 9.056965 -0.000312
v -0.199204 9.058958 0.093885
v -0.156659 9.313785 0.093886
v 0.594218 9.307650 0.093886
v 0.539813 8.880984 0.093885
v 0.542987 8.880981 -0.000312
v -0.228526 8.882195 0.094040
v -0.097940 9.313304 0.093886
v -0.096802 8.882022 0.094020
v 0.379104 9.309407 0.093886
v 0.377922 8.881248 0.093919
v -0.097940 9.313304 -0.000311
v -0.096802 8.882022 -0.000312
v 0.379104 9.309407 -0.000311
v 0.377922 8.881248 -0.000312
v 0.538635 9.076695 0.064889
v 1.988365 9.076695 0.064889
v 0.538635 9.011412 -0.000312
v 0.538635 9.141979 -0.000312
v 1.988365 9.011412 -0.000312
v 1.988365 9.141979 -0.000312
v 0.565124 9.226379 0.090964
v 2.004498 9.226379 0.090964
v 0.565124 9.135021 -0.000312
v 0.565124 9.317736 -0.000311
v 2.004498 9.135021 -0.000312
v 2.004498 9.317736 -0.000311
v -0.098997 8.414082 -0.021352
v 0.090313 8.414328 -0.021352
v -0.255594 8.564601 -0.021351
v 0.226406 8.542094 -0.020231
v 0.219259 8.674580 -0.021351
v 0.198621 8.733318 -0.021351
v 0.601039 9.364712 -0.094507
v 0.526903 8.788218 -0.094509
v -0.885623 8.523386 -0.133987
v -1.054553 7.994705 -0.133987
v -0.688515 8.874205 -0.133986
v -0.672808 8.010210 -0.133987
v -0.429009 8.683494 -0.133986
v -0.379286 9.104038 -0.094508
v -0.244391 8.799117 -0.094738
v -0.157842 9.364712 -0.094507
v -0.280067 8.596865 -0.094509
v -0.533902 8.970637 -0.133985
v -0.636613 8.582470 -0.133986
v -0.199204 9.058958 -0.094508
v -0.156659 9.313785 -0.094507
v 0.594218 9.307650 -0.094507
v 0.539813 8.880984 -0.094509
v -0.228526 8.882195 -0.094664
v -0.097940 9.313304 -0.094507
v -0.096802 8.882022 -0.094644
v 0.379104 9.309407 -0.094507
v 0.377922 8.881248 -0.094543
v 0.538635 9.076695 -0.065512
v 1.988365 9.076695 -0.065512
v 0.565124 9.226379 -0.091584
v 2.004498 9.226379 -0.091584
v 0.597701 9.314049 -0.000394
v 2.003554 9.314049 -0.000394
v 0.597701 9.378368 -0.000394
v 2.003554 9.460983 -0.000394
v 0.592422 9.378707 0.016583
v 2.003135 9.461835 0.016583
v 0.592422 9.378707 -0.017370
v 2.003135 9.461835 -0.017370
v -0.199315 9.384196 0.051276
v -0.199315 9.461940 0.051276
v 0.078434 9.385748 0.051276
v -0.199315 9.384196 0.000002
v -0.199315 9.398895 0.000002
v 0.078434 9.385757 0.000002
v -0.199315 9.461940 0.021032
v -0.199315 9.398895 0.000002
v -0.199315 9.384196 -0.051272
v -0.199315 9.461940 -0.051272
v 0.078434 9.385748 -0.051272
v -0.199315 9.461940 -0.021028
vn -0.0000 0.4932 -0.8699
vn 0.3651 0.3798 -0.8500
vn -0.3365 0.3625 -0.8691
vn -0.4841 -0.0021 -0.8750
vn -0.2855 0.0348 -0.9577
vn -0.6968 0.4109 0.5878
vn -0.0109 -0.8197 0.5727
vn -0.7617 0.2171 0.6105
vn 0.0205 -0.7632 0.6458
vn -0.0878 -0.0321 -0.9956
vn -0.2351 0.6955 0.6790
vn 0.3843 -0.7345 0.5593
vn -0.0000 0.9748 0.2232
vn 0.7729 -0.2559 0.5806
vn -0.3065 -0.7790 0.5470
vn 0.7836 -0.0160 0.6210
vn -0.4476 0.8362 0.3168
vn 0.0003 0.0003 1.0000
vn 0.9918 -0.1146 0.0565
vn -0.0000 -0.0000 -1.0000
vn 0.7776 -0.5513 -0.3023
vn 0.1290 0.0252 0.9913
vn -0.0000 -0.0000 1.0000
vn -0.0082 -1.0000 -0.0000
vn 0.7030 0.0021 0.7112
vn 0.0016 1.0000 -0.0000
vn -0.0001 -0.0003 -1.0000
vn -1.0000 -0.0026 -0.0000
vn -1.0000 0.0028 -0.0000
vn 0.0001 -0.0000 1.0000
vn 0.9928 -0.1197 0.0030
vn 1.0000 -0.0000 -0.0000
vn -0.0000 -0.7067 0.7076
vn -0.0000 0.7067 0.7076
vn -1.0000 -0.0000 -0.0000
vn -0.0000 -0.7068 0.7074
vn -0.0000 0.7068 0.7074
vn -0.0000 0.4932 0.8699
vn 0.3651 0.3798 0.8500
vn -0.3365 0.3625 0.8691
vn -0.4841 -0.0021 0.8750
vn -0.2855 0.0348 0.9577
vn -0.6968 0.4109 -0.5878
vn -0.0109 -0.8197 -0.5727
vn -0.7617 0.2171 -0.6105
vn 0.0205 -0.7632 -0.6458
vn -0.0878 -0.0321 0.9956
vn -0.2351 0.6955 -0.6790
vn 0.3843 -0.7345 -0.5593
vn -0.0000 0.9748 -0.2232
vn 0.7729 -0.2559 -0.5806
vn -0.3065 -0.7790 -0.5470
vn 0.7836 -0.0160 -0.6210
vn -0.4476 0.8362 -0.3168
vn 0.0003 0.0003 -1.0000
vn 0.9918 -0.1146 -0.0565
vn 0.7776 -0.5513 0.3023
vn 0.1290 0.0252 -0.9913
vn 0.7030 0.0021 -0.7112
vn -0.0001 -0.0003 1.0000
vn 0.0001 -0.0000 -1.0000
vn 0.9928 -0.1197 -0.0030
vn -0.0000 -0.7067 -0.7076
vn -0.0000 0.7067 -0.7076
vn -0.0000 -0.7068 -0.7074
vn -0.0000 0.7068 -0.7074
vn 0.0056 -1.0000 -0.0001
vn 0.1357 0.8440 -0.5188
vn 0.0056 -1.0000 0.0001
vn 0.1357 0.8440 0.5188
vn -0.0588 0.9983 -0.0000
vt 0.827320 0.839268
vt 0.809123 0.849206
vt 0.831398 0.842712
vt 0.810087 0.857688
vt 0.851048 0.814769
vt 0.856010 0.815152
vt 0.786824 0.855192
vt 0.786511 0.863906
vt 0.770780 0.849919
vt 0.767768 0.857521
vt 0.765512 0.836194
vt 0.761486 0.856868
vt 0.548165 0.914163
vt 0.933459 0.839114
vt 0.527235 0.598131
vt 0.755925 0.833125
vt 0.112809 0.441257
vt 0.063906 0.152197
vt 0.046721 0.102207
vt 0.548165 0.925987
vt 0.936058 0.826707
vt 0.087254 0.430596
vt 0.527235 0.562287
vt 0.747625 0.819324
vt 0.184095 0.645267
vt 0.171713 0.158997
vt 0.206984 0.103938
vt 0.181528 0.705404
vt 0.182520 0.737191
vt 0.257359 0.540721
vt 0.271397 0.771264
vt 0.259489 0.761240
vt 0.259489 0.761240
vt 0.271397 0.771264
vt 0.251847 0.498267
vt 0.309481 0.604105
vt 0.360077 0.925987
vt 0.311506 0.863376
vt 0.376438 0.914163
vt 0.327158 0.869333
vt 0.333916 0.914163
vt 0.331982 0.567114
vt 0.323857 0.578643
vt 0.299541 0.455269
vt 0.299409 0.493231
vt 0.227746 0.698132
vt 0.196468 0.447276
vt 0.183244 0.472538
vt 0.227746 0.745458
vt 0.322238 0.746550
vt 0.500000 0.790694
vt 0.334250 0.897804
vt 0.604180 0.790694
vt 0.334250 0.886246
vt 0.546239 0.894442
vt 0.546239 0.882883
vt 0.530880 0.648985
vt 0.786117 0.833381
vt 0.792483 0.821948
vt 0.414964 0.790694
vt 0.313960 0.649647
vt 0.350827 0.897541
vt 0.350827 0.885983
vt 0.604010 0.787512
vt 0.351148 0.649554
vt 0.415466 0.784978
vt 0.485508 0.895405
vt 0.602627 0.761658
vt 0.494957 0.883846
vt 0.485174 0.649130
vt 0.417757 0.758895
vt 0.494623 0.649130
vt 0.604010 0.787512
vt 0.415466 0.784978
vt 0.602627 0.761658
vt 0.417757 0.758895
vt 0.559609 0.758648
vt 0.625000 0.000000
vt 0.537570 0.776019
vt 0.951980 0.758648
vt 0.559609 0.732267
vt 0.375000 0.125000
vt 0.559609 0.785028
vt 0.625000 0.125000
vt 0.514454 0.778551
vt 0.951980 0.732267
vt 0.523170 0.669984
vt 0.951980 0.785028
vt 0.727933 0.847723
vt 0.625000 0.000000
vt 0.775522 0.307157
vt 0.963934 0.842681
vt 0.727768 0.813688
vt 0.375000 0.125000
vt 0.728098 0.881757
vt 0.625000 0.125000
vt 0.821647 0.221379
vt 0.963769 0.808646
vt 0.818956 0.396066
vt 0.964099 0.876716
vt 0.827320 0.839268
vt 0.809123 0.849206
vt 0.851048 0.814769
vt 0.786824 0.855192
vt 0.770780 0.849919
vt 0.765512 0.836194
vt 0.548165 0.914163
vt 0.933459 0.839114
vt 0.527235 0.598131
vt 0.755925 0.833125
vt 0.112809 0.441257
vt 0.063906 0.152197
vt 0.184095 0.645267
vt 0.171713 0.158997
vt 0.257359 0.540721
vt 0.259489 0.761240
vt 0.271397 0.771264
vt 0.309481 0.604105
vt 0.376438 0.914163
vt 0.327158 0.869333
vt 0.333916 0.914163
vt 0.299409 0.493231
vt 0.227746 0.698132
vt 0.183244 0.472538
vt 0.322238 0.746550
vt 0.500000 0.790694
vt 0.334250 0.897804
vt 0.604180 0.790694
vt 0.334250 0.886246
vt 0.546239 0.894442
vt 0.546239 0.882883
vt 0.530880 0.648985
vt 0.786117 0.833381
vt 0.414964 0.790694
vt 0.313960 0.649647
vt 0.350827 0.897541
vt 0.350827 0.885983
vt 0.604010 0.787512
vt 0.351148 0.649554
vt 0.415466 0.784978
vt 0.485508 0.895405
vt 0.602627 0.761658
vt 0.494957 0.883846
vt 0.485174 0.649130
vt 0.417757 0.758895
vt 0.494623 0.649130
vt 0.559609 0.758648
vt 0.625000 0.000000
vt 0.537570 0.776019
vt 0.951980 0.758648
vt 0.727933 0.847723
vt 0.625000 0.000000
vt 0.775522 0.307157
vt 0.963934 0.842681
vt 0.558603 0.888065
vt 0.960630 0.873078
vt 0.558603 0.921152
vt 0.960630 0.938244
vt 0.594952 0.831829
vt 0.725048 0.831829
vt 0.594952 0.858580
vt 0.725048 0.858580
vt 0.525134 0.835291
vt 0.510401 0.820558
vt 0.525134 0.776360
vt 0.539866 0.835291
vt 0.539866 0.776360
vt 0.554599 0.820558
vt 0.525134 0.820558
vt 0.539866 0.820558
vt 0.510401 0.813192
vt 0.525134 0.783726
vt 0.539866 0.783726
vt 0.554599 0.813192
vt 0.525134 0.813192
vt 0.539866 0.813192
vt 0.554599 0.820558
vt 0.554599 0.813192
vt 0.525134 0.835291
vt 0.510401 0.820558
vt 0.525134 0.776360
vt 0.539866 0.835291
vt 0.539866 0.776360
vt 0.554599 0.820558
vt 0.525134 0.820558
vt 0.539866 0.820558
vt 0.554599 0.820558
s 0
usemtl Material.005
f 1/1/1 2/2/1 4/4/1 3/3/1
f 1/1/2 3/3/2 6/6/2 5/5/2
f 4/4/3 2/2/3 7/7/3 8/8/3
f 8/8/4 7/7/4 9/9/4 10/10/4
f 10/10/5 9/9/5 11/11/5 12/12/5
f 24/28/6 19/22/6 15/17/6 21/25/6
f 32/42/7 20/23/7 14/15/7 29/36/7
f 19/22/8 17/19/8 16/18/8 15/17/8
f 17/19/9 23/27/9 22/26/9 16/18/9
f 37/48/10 35/46/10 27/34/10 25/30/10
f 38/49/11 24/29/11 21/25/11 35/46/11
f 36/47/12 28/35/12 25/30/12 37/48/12
f 18/20/13 30/37/13 31/39/13 13/13/13
f 33/44/14 32/43/14 29/36/14 34/45/14
f 28/35/15 33/44/15 34/45/15 25/30/15
f 23/27/16 36/47/16 37/48/16 22/26/16
f 26/31/17 38/49/17 35/46/17 27/34/17
f 14/15/18 42/57/18 48/70/18 46/65/18 44/61/18 29/36/18
f 20/24/19 43/59/19 42/58/19 14/16/19
f 22/26/20 16/18/20 15/17/20 37/48/20
f 30/38/21 31/40/21 27/33/21 26/32/21
f 25/30/22 34/45/22 39/50/22 27/34/22
f 15/17/23 37/48/23 35/46/23 21/25/23
f 31/41/23 27/34/23 39/50/23 40/54/23
f 40/52/23 45/62/23 47/67/23 41/55/23 13/13/23 31/41/23
f 47/68/24 45/64/24 49/73/24 51/75/24
f 45/64/25 40/53/25 39/51/25 44/60/25 46/66/25 50/74/25 49/73/25
f 46/66/26 48/71/26 52/76/26 50/74/26
f 44/61/27 40/54/27 45/63/27 46/65/27
f 50/74/28 46/66/28 45/64/28 49/73/28
f 52/76/29 48/71/29 47/68/29 51/75/29
f 47/69/30 48/72/30 42/57/30 41/56/30
f 43/59/31 18/21/31 13/14/31 42/58/31
f 57/85/32 58/87/32 54/79/32
f 55/81/33 57/86/33 54/80/33 53/77/33
f 58/88/34 56/83/34 53/77/34 54/80/34
f 53/78/35 56/84/35 55/82/35
f 63/97/32 64/99/32 60/91/32
f 61/93/36 63/98/36 60/92/36 59/89/36
f 64/100/37 62/95/37 59/89/37 60/92/37
f 59/90/35 62/96/35 61/94/35
f 65/101/38 3/3/38 4/4/38 66/102/38
f 65/101/39 67/103/39 6/6/39 3/3/39
f 4/4/40 8/8/40 68/104/40 66/102/40
f 8/8/41 10/10/41 69/105/41 68/104/41
f 10/10/42 12/12/42 70/106/42 69/105/42
f 24/28/43 75/113/43 73/111/43 19/22/43
f 32/42/44 79/118/44 72/109/44 20/23/44
f 19/22/45 73/111/45 74/112/45 17/19/45
f 17/19/46 74/112/46 76/114/46 23/27/46
f 83/124/47 77/115/47 78/117/47 82/123/47
f 38/49/48 82/123/48 75/113/48 24/29/48
f 36/47/49 83/124/49 77/115/49 28/35/49
f 18/20/50 71/107/50 80/119/50 30/37/50
f 33/44/51 81/122/51 79/118/51 32/43/51
f 28/35/52 77/115/52 81/122/52 33/44/52
f 23/27/53 76/114/53 83/124/53 36/47/53
f 26/31/54 78/117/54 82/123/54 38/49/54
f 72/109/55 79/118/55 88/135/55 90/139/55 92/144/55 87/132/55
f 20/24/56 72/110/56 87/133/56 43/59/56
f 76/114/23 83/124/23 73/111/23 74/112/23
f 30/38/57 26/32/57 78/116/57 80/120/57
f 77/115/58 78/117/58 84/125/58 81/122/58
f 73/111/20 75/113/20 82/123/20 83/124/20
f 80/121/20 85/129/20 84/125/20 78/117/20
f 85/127/20 80/121/20 71/107/20 86/130/20 91/141/20 89/136/20
f 91/142/24 51/75/24 49/73/24 89/138/24
f 89/138/59 49/73/59 50/74/59 90/140/59 88/134/59 84/126/59 85/128/59
f 90/140/26 50/74/26 52/76/26 92/145/26
f 88/135/60 90/139/60 89/137/60 85/129/60
f 50/74/28 49/73/28 89/138/28 90/140/28
f 52/76/29 51/75/29 91/142/29 92/145/29
f 91/143/61 86/131/61 87/132/61 92/146/61
f 43/59/62 87/133/62 71/108/62 18/21/62
f 57/85/32 94/149/32 58/87/32
f 55/81/63 93/147/63 94/150/63 57/86/63
f 58/88/64 94/150/64 93/147/64 56/83/64
f 93/148/35 55/82/35 56/84/35
f 63/97/32 96/153/32 64/99/32
f 61/93/65 95/151/65 96/154/65 63/98/65
f 64/100/66 96/154/66 95/151/66 62/95/66
f 95/152/35 61/94/35 62/96/35
f 107/170/23 106/166/23 105/163/23
f 108/171/67 110/175/67 107/169/67 105/164/67
f 110/176/68 109/174/68 106/168/68 107/170/68
f 105/165/35 106/167/35 109/173/35 108/172/35
f 109/174/35 106/168/35 111/177/35 112/178/35
f 115/186/20 113/179/20 114/182/20
f 108/171/69 113/180/69 115/185/69 110/175/69
f 110/176/70 115/186/70 114/184/70 109/174/70
f 113/181/35 108/172/35 109/173/35 114/183/35
f 109/174/35 112/178/35 116/187/35 114/184/35
usemtl Material.006
f 97/155/23 98/156/23 100/158/23 99/157/23
f 101/159/71 102/160/71 104/162/71 103/161/71
o CPBullet
v 0.763219 8.365795 -0.009982
v 0.763219 8.701651 -0.009981
v 0.708885 8.365795 -0.064316
v 0.708885 8.701651 -0.064315
v 0.817553 8.365795 -0.064316
v 0.817553 8.701651 -0.064315
v 0.763219 8.801310 -0.037252
v 0.737880 8.801310 -0.064315
v 0.788558 8.801310 -0.064315
v 0.763219 8.365795 -0.118651
v 0.763219 8.701651 -0.118650
v 0.763219 8.801310 -0.091376
vn 0.7071 -0.0000 0.7071
vn -0.7071 -0.0000 0.7071
vn -0.0000 -1.0000 -0.0000
vn 0.7008 0.1958 0.6860
vn -0.7008 0.1958 0.6860
vn 0.7071 -0.0000 -0.7071
vn -0.7071 -0.0000 -0.7071
vn -0.0000 1.0000 -0.0000
vn 0.7008 0.1958 -0.6860
vn -0.7008 0.1958 -0.6860
vt 0.721409 0.769745
vt 0.872245 0.896722
vt 0.225979 0.761354
vt 0.208918 0.745377
vt 0.770126 0.719124
vt 0.722189 0.654546
vt 0.226760 0.646155
vt 0.209698 0.630177
vt 0.974364 0.719124
vt 0.720628 0.875814
vt 0.225198 0.876553
vt 0.208137 0.860576
vt 0.087423 0.742887
vt 0.089100 0.693729
vt 0.087059 0.789763
vt 0.872245 0.541525
vt 0.721409 0.769745
vt 0.225979 0.761354
vt 0.208918 0.745377
vt 0.087423 0.742887
s 0
usemtl Material.002
f 121/197/72 122/198/72 118/190/72 117/188/72
f 117/188/73 118/190/73 120/194/73 119/193/73
f 117/189/74 119/192/74 126/203/74 121/196/74
f 118/191/75 122/199/75 125/202/75 123/200/75
f 120/195/76 118/191/76 123/200/76 124/201/76
f 121/197/77 126/204/77 127/205/77 122/198/77
f 126/204/78 119/193/78 120/194/78 127/205/78
f 124/201/79 123/200/79 125/202/79 128/207/79
f 127/206/80 128/207/80 125/202/80 122/199/80
f 120/195/81 124/201/81 128/207/81 127/206/81
o CPCyilnder
v -0.074722 8.977317 0.185629
v -0.074722 9.198202 0.185630
v 0.366969 8.977317 0.185629
v 0.366969 9.198202 0.185630
v -0.074722 8.867014 -0.000373
v -0.074722 9.308702 -0.000372
v 0.366969 8.867014 -0.000373
v 0.366969 9.308702 -0.000372
v -0.074722 8.977317 -0.186375
v -0.074722 9.198202 -0.186375
v 0.366969 8.977317 -0.186375
v 0.366969 9.198202 -0.186375
vn 1.0000 -0.0000 -0.0000
vn -0.0000 -0.0000 1.0000
vn -0.0000 -0.8601 0.5101
vn -0.0000 0.8597 0.5108
vn -1.0000 -0.0000 -0.0000
vn -0.0000 -0.0000 -1.0000
vn -0.0000 -0.8601 -0.5101
vn -0.0000 0.8597 -0.5108
vt 0.661896 0.678423
vt 0.385894 0.021731
vt 0.661896 0.828984
vt 0.510360 0.252345
vt -0.002613 0.781862
vt 0.962961 0.678423
vt 0.160275 0.995188
vt 0.962961 0.828984
vt 0.661896 0.603239
vt 0.129142 0.011161
vt 0.661896 0.904304
vt 0.378027 0.472304
vt 0.095684 0.538174
vt 0.962961 0.603239
vt 0.417458 0.954244
vt 0.962961 0.904304
vt 0.661896 0.678423
vt -0.003302 0.230914
vt 0.661896 0.828984
vt 0.121163 0.461528
vt -0.002613 0.781862
vt 0.962961 0.678423
vt 0.160275 0.995188
vt 0.962961 0.828984
s 0
usemtl Material.021
f 135/220/82 136/222/82 132/214/82 131/212/82
f 131/213/83 132/215/83 130/210/83 129/208/83
f 133/216/84 135/221/84 131/213/84 129/208/84
f 136/223/85 134/218/85 130/210/85 132/215/85
f 129/209/86 130/211/86 134/219/86 133/217/86
f 135/220/82 139/228/82 140/230/82 136/222/82
f 139/229/87 137/224/87 138/226/87 140/231/87
f 133/216/88 137/224/88 139/229/88 135/221/88
f 136/223/89 140/231/89 138/226/89 134/218/89
f 137/225/86 133/217/86 134/219/86 138/227/86
o CPTrigger&Hammer
v -0.542433 9.045088 0.017363
v -0.445452 9.132621 0.017363
v -0.399438 8.990546 0.017363
v -0.320600 9.080666 0.017363
v -0.563857 9.308570 0.015928
v -0.282725 9.160318 0.017363
v -0.336300 9.261172 0.017364
v -0.290709 9.327761 0.017364
v -0.243808 9.334270 0.017364
v -0.343227 9.167622 0.017363
v -0.516884 9.332774 0.017174
v -0.442196 9.278496 0.012845
v -0.542433 9.045088 -0.018153
v -0.445452 9.132621 -0.018153
v -0.399438 8.990546 -0.018153
v -0.320600 9.080666 -0.018153
v -0.563857 9.308570 -0.016716
v -0.282725 9.160318 -0.018153
v -0.336300 9.261172 -0.018152
v -0.290709 9.327761 -0.018152
v -0.243808 9.334270 -0.018152
v -0.343227 9.167622 -0.018153
v -0.516884 9.332774 -0.017963
v -0.442196 9.278496 -0.013634
v 0.036705 8.436523 0.000855
v 0.028490 8.468983 0.000855
v -0.214517 8.786943 0.000856
v 0.060927 8.820535 0.000856
v -0.057757 8.652390 0.000856
v 0.039931 8.641192 0.000856
v -0.069289 8.519491 0.000856
v -0.021325 8.554251 0.000856
vn -0.0000 -0.0000 1.0000
vn 0.0085 -0.0679 0.9977
vn 0.7460 0.6659 -0.0000
vn 0.2400 0.9708 -0.0000
vn 0.4580 -0.8889 -0.0000
vn -0.0512 -0.0527 0.9973
vn 0.6700 -0.7423 -0.0000
vn -0.0000 -0.0000 -1.0000
vn 0.0085 -0.0679 -0.9977
vn 0.3239 -0.9461 -0.0000
vn -0.0512 -0.0527 -0.9973
vn 0.3686 0.9296 -0.0000
vn -0.8251 0.5649 -0.0000
vn 0.9759 -0.2183 -0.0000
vn -0.1375 0.9905 -0.0000
vt 0.278484 0.811185
vt 0.289524 0.861348
vt 0.275864 0.834512
vt 0.287023 0.854821
vt 0.284391 0.838281
vt 0.277293 0.851178
vt 0.271279 0.852504
vt 0.000000 0.000000
vt 0.283620 0.844395
vt 0.270933 0.857565
vt 0.290781 0.825555
vt 0.625000 0.750000
vt 0.284277 0.846947
vt 0.284316 0.841188
vt 0.283902 0.846548
vt 0.292995 0.880080
vt 0.282441 0.842635
vt 0.298222 0.890142
vt 0.625000 0.750000
vt 0.282218 0.842199
vt 0.270177 0.848072
vt 0.279212 0.828267
vt 0.274045 0.847646
vt 0.285829 0.851941
vt 0.280261 0.861491
vt 0.296713 0.872832
vt 0.282878 0.842750
vt 0.290900 0.848218
vt 0.284005 0.845747
vt 0.000000 0.000000
vt 0.290417 0.864198
vt 0.290689 0.859735
vt 0.278130 0.843414
vt 0.276895 0.833952
vt 0.288130 0.853306
vt 0.285167 0.841047
vt 0.284749 0.827485
vt 0.000000 0.000000
vt 0.284732 0.842898
vt 0.294817 0.860785
vt 0.282910 0.817668
vt 0.276665 0.841890
vt 0.625000 0.750000
vt 0.280182 0.854518
vt 0.284952 0.845130
vt 0.277226 0.863066
vt 0.283470 0.841254
vt 0.273772 0.859197
vt 0.625000 0.750000
vt 0.283221 0.840853
vt 0.279841 0.822355
vt 0.286875 0.850515
vt 0.280532 0.842929
vt 0.291974 0.863837
vt 0.284042 0.841187
vt 0.284838 0.844622
vt 0.000000 0.000000
vt 0.286957 0.856906
vt 0.496693 0.803038
vt 0.546960 0.803038
vt 0.496693 0.873148
vt 0.546960 0.873148
vt 0.496693 0.848572
vt 0.546960 0.848572
vt 0.496693 0.824477
vt 0.546960 0.824477
s 0
usemtl Material.018
f 143/236/90 144/237/90 142/234/90 141/232/90
f 145/238/91 152/259/91 151/256/91
f 150/255/92 162/283/92 164/287/92 152/260/92
f 150/252/90 142/234/90 144/237/90 146/241/90
f 147/244/90 150/253/90 146/242/90 149/249/90 148/247/90
f 157/269/93 145/239/93 152/261/93 164/288/93
f 145/240/94 157/270/94 163/286/94 151/258/94
f 151/257/95 152/262/95 150/254/95 147/245/95
f 141/233/96 153/263/96 154/266/96 142/235/96
f 155/267/97 153/264/97 154/265/97 156/268/97
f 157/271/98 163/285/98 164/289/98
f 162/282/97 158/272/97 156/268/97 154/265/97
f 159/275/97 160/277/97 161/279/97 158/273/97 162/284/97
f 162/283/99 150/255/99 142/235/99 154/266/99
f 163/285/100 159/275/100 162/284/100 164/289/100
f 147/246/101 159/276/101 163/286/101 151/258/101
f 148/248/102 160/278/102 159/276/102 147/246/102
f 149/250/103 146/243/103 158/274/103 161/280/103
f 148/248/104 149/251/104 161/281/104 160/278/104
f 169/294/90 170/295/90 168/293/90 167/292/90
f 171/296/90 172/297/90 170/295/90 169/294/90
f 165/290/90 166/291/90 172/297/90 171/296/90
o CPCyilnderFull
v -0.074722 8.977317 -0.284883
v -0.074722 9.198202 -0.284883
v 0.366969 8.977317 -0.284883
v 0.366969 9.198202 -0.284883
v -0.074722 8.867014 -0.470885
v -0.074722 9.308702 -0.470885
v 0.366969 8.867014 -0.470885
v 0.366969 9.308702 -0.470885
v -0.074722 8.977317 -0.656887
v -0.074722 9.198202 -0.656887
v 0.366969 8.977317 -0.656887
v 0.366969 9.198202 -0.656887
vn 1.0000 -0.0000 -0.0000
vn -0.0000 -0.0000 1.0000
vn -0.0000 -0.8601 0.5101
vn -0.0000 0.8597 0.5107
vn -1.0000 -0.0000 -0.0000
vn -0.0000 -0.0000 -1.0000
vn -0.0000 -0.8601 -0.5101
vn -0.0000 0.8597 -0.5107
vt 0.661896 0.678423
vt 0.883576 0.013889
vt 0.661896 0.828984
vt 1.008041 0.244503
vt -0.002613 0.781862
vt 0.962961 0.678423
vt 0.160275 0.995188
vt 0.962961 0.828984
vt 0.661896 0.603239
vt 0.626824 0.003320
vt 0.661896 0.904304
vt 0.875709 0.464462
vt 0.095684 0.538174
vt 0.962961 0.603239
vt 0.417458 0.954244
vt 0.962961 0.904304
vt 0.661896 0.678423
vt 0.494380 0.223072
vt 0.661896 0.828984
vt 0.618845 0.453686
vt -0.002613 0.781862
vt 0.962961 0.678423
vt 0.160275 0.995188
vt 0.962961 0.828984
s 0
usemtl Material.021
f 179/310/105 180/312/105 176/304/105 175/302/105
f 175/303/106 176/305/106 174/300/106 173/298/106
f 177/306/107 179/311/107 175/303/107 173/298/107
f 180/313/108 178/308/108 174/300/108 176/305/108
f 173/299/109 174/301/109 178/309/109 177/307/109
f 179/310/105 183/318/105 184/320/105 180/312/105
f 183/319/110 181/314/110 182/316/110 184/321/110
f 177/306/111 181/314/111 183/319/111 179/311/111
f 180/313/112 184/321/112 182/316/112 178/308/112
f 181/315/109 177/307/109 178/309/109 182/317/109
