# Blender 3.3.1
# www.blender.org
mtllib HighCalibler.mtl
o HCBody
v -0.995862 0.310017 0.130405
v -0.990106 1.444449 0.130405
v -0.283484 1.245998 0.000000
v -0.283484 1.446647 0.000000
v 0.492280 1.389926 0.130405
v 0.492280 1.446647 0.130405
v -0.283484 1.446647 0.130405
v -0.367433 1.328421 0.130405
v -1.074723 0.320192 0.000000
v -1.183826 1.339981 0.000000
v 0.492280 1.330399 0.000000
v 0.492280 1.446647 0.000000
v -0.518399 1.446647 0.000000
v -0.518399 1.446647 0.130405
v -0.641960 0.245834 0.130405
v -0.533844 0.228027 0.000000
v -1.183579 1.295209 0.000000
v -0.988258 1.236058 0.130405
v -0.799211 1.084401 0.130405
v -0.879344 1.084401 0.000000
v -1.106730 0.498653 0.000000
v -1.021509 0.498653 0.130405
v 0.961676 1.640795 0.092292
v 2.058401 1.640795 0.092292
v 0.961676 1.548503 0.000000
v 0.961676 1.733088 0.000000
v 2.058401 1.548503 0.000000
v 2.058401 1.733088 0.000000
v 0.856176 1.640796 0.142853
v 0.856176 1.502475 0.000000
v 0.856176 1.779117 0.000000
v 0.772654 1.640796 0.142853
v 0.772654 1.502475 0.000000
v 0.772654 1.779117 0.000000
v 0.352303 1.497399 0.093606
v 0.352222 1.723410 0.094360
v 0.752192 1.497399 0.084095
v 0.752192 1.725614 0.095353
v 0.352303 1.497399 0.000000
v 0.352303 1.812425 0.000000
v 0.752192 1.497399 0.000000
v 0.752192 1.812425 0.000000
v 0.753230 1.640796 0.129855
v 0.753230 1.521353 0.000000
v 0.753230 1.760238 0.000000
v -0.260834 1.444301 0.094440
v -0.056430 1.723662 0.094440
v 0.352141 1.444301 0.094440
v -0.260834 1.444301 0.000000
v -0.014272 1.812147 0.000000
v 0.352141 1.444301 0.000000
v 0.352141 1.812147 0.000000
v 0.640713 1.498207 0.030156
v 0.733209 1.498207 0.030156
v 0.640713 1.371048 0.000000
v 0.707145 1.371048 0.000000
v -0.185047 0.983306 0.032825
v 0.016347 0.983306 0.032825
v -0.213573 0.948175 0.000000
v 0.032862 0.948175 0.000000
v 0.192753 1.045611 0.032825
v 0.231788 1.023992 0.000000
v 0.239004 1.143383 0.032826
v 0.275142 1.144932 0.000000
v 0.195562 1.313708 0.032826
v 0.281387 1.312663 0.000000
v -0.373926 1.104768 0.032825
v -0.348588 0.996655 0.000000
v 0.233144 1.723161 0.000000
v 0.233144 1.831007 0.000000
v 2.058295 1.867107 0.000000
v 0.234472 1.831380 0.035129
v 2.058311 1.867121 0.035129
v 0.234472 1.831380 -0.035129
v 2.058311 1.867121 -0.035129
v -1.058983 1.444886 0.000000
v -0.995862 0.310017 -0.130405
v -0.990106 1.444449 -0.130405
v 0.492280 1.389926 -0.130405
v 0.492280 1.446647 -0.130405
v -0.283484 1.446647 -0.130405
v -0.367433 1.328421 -0.130405
v -0.518399 1.446647 -0.130405
v -0.641960 0.245834 -0.130405
v -0.988258 1.236058 -0.130405
v -0.799211 1.084401 -0.130405
v -1.021509 0.498653 -0.130405
v 0.961676 1.640795 -0.092292
v 2.058401 1.640795 -0.092292
v 0.856176 1.640796 -0.142853
v 0.772654 1.640796 -0.142853
v 0.352303 1.497399 -0.093606
v 0.352222 1.723410 -0.094360
v 0.752192 1.497399 -0.084095
v 0.752192 1.725614 -0.095353
v 0.753230 1.640796 -0.129855
v -0.260834 1.444301 -0.094440
v -0.056430 1.723662 -0.094440
v 0.352141 1.444301 -0.094440
v 0.640713 1.498207 -0.030156
v 0.733209 1.498207 -0.030156
v -0.185047 0.983306 -0.032825
v 0.016347 0.983306 -0.032825
v 0.192753 1.045611 -0.032825
v 0.239004 1.143383 -0.032826
v 0.195562 1.313708 -0.032826
v -0.373926 1.104768 -0.032825
v 0.234472 1.831380 -0.035129
v 2.058311 1.867121 -0.035129
v 0.234472 1.831380 0.035129
v 2.058311 1.867121 0.035129
vn -0.1721 -0.9850 0.0095
vn -0.0000 1.0000 -0.0000
vn 1.0000 -0.0000 -0.0000
vn -0.0000 -0.0000 1.0000
vn 0.0772 -0.8651 0.4957
vn -0.0039 1.0000 0.0027
vn 0.7548 -0.1886 0.6283
vn -0.8413 -0.1321 0.5241
vn -0.5565 -0.0046 0.8309
vn -0.5415 -0.7369 0.4047
vn -0.8034 0.3084 0.5094
vn -0.0000 -0.7071 0.7071
vn -0.0000 0.7071 0.7071
vn -0.0000 -0.0000 -1.0000
vn 0.3078 0.6793 0.6662
vn 0.3078 -0.6793 0.6662
vn -0.0000 0.7184 0.6956
vn -0.0000 -0.7184 0.6956
vn 0.0107 -0.0264 0.9996
vn -0.0000 -1.0000 -0.0000
vn -0.0029 0.7334 0.6798
vn -1.0000 -0.0001 -0.0005
vn -1.0000 -0.0000 -0.0000
vn -0.5036 0.6278 0.5934
vn -0.5036 -0.6278 0.5934
vn 1.0000 -0.0001 -0.0005
vn 0.0001 0.0001 1.0000
vn 0.0003 0.7291 0.6844
vn -0.0000 0.2308 -0.9730
vn -0.0000 0.6827 -0.7307
vn -0.2319 0.6302 -0.7410
vn -0.5996 0.2457 -0.7617
vn -0.4732 -0.0521 -0.8794
vn 0.2116 0.4033 -0.8903
vn -0.0196 0.9998 -0.0000
vn -0.6086 0.7243 0.3239
vn -0.1721 -0.9850 -0.0095
vn 0.0772 -0.8651 -0.4957
vn -0.0039 1.0000 -0.0027
vn 0.7548 -0.1886 -0.6283
vn -0.8413 -0.1321 -0.5241
vn -0.5565 -0.0046 -0.8309
vn -0.5415 -0.7369 -0.4047
vn -0.8034 0.3084 -0.5094
vn -0.0000 -0.7071 -0.7071
vn -0.0000 0.7071 -0.7071
vn 0.3078 0.6793 -0.6662
vn 0.3078 -0.6793 -0.6662
vn -0.0000 0.7184 -0.6956
vn -0.0000 -0.7184 -0.6956
vn 0.0107 -0.0264 -0.9996
vn -0.0029 0.7334 -0.6798
vn -1.0000 -0.0001 0.0005
vn -0.5036 0.6278 -0.5934
vn -0.5036 -0.6278 -0.5934
vn 1.0000 -0.0001 0.0005
vn 0.0001 0.0001 -1.0000
vn 0.0003 0.7291 -0.6844
vn -0.0000 0.2308 0.9730
vn -0.0000 0.6827 0.7307
vn -0.2319 0.6302 0.7410
vn -0.5996 0.2457 0.7617
vn -0.4732 -0.0521 0.8794
vn 0.2116 0.4033 0.8903
vn -0.6086 0.7243 -0.3239
vn -0.8205 0.5717 -0.0000
vt 0.074930 0.083700
vt 0.089447 0.684178
vt 0.059023 0.680207
vt 0.274092 0.611079
vt 0.274808 0.702183
vt 0.505465 0.671004
vt 0.505465 0.702183
vt 0.274808 0.702183
vt 0.249848 0.637195
vt 0.051483 0.089294
vt 0.022665 0.646153
vt 0.025529 0.646814
vt 0.504749 0.648209
vt 0.505465 0.702183
vt 0.204962 0.702183
vt 0.204961 0.702183
vt 0.169297 0.057337
vt 0.202517 0.050858
vt 0.022350 0.625224
vt 0.055638 0.621915
vt 0.091198 0.582495
vt 0.089409 0.603008
vt 0.121468 0.503062
vt 0.112318 0.514973
vt 0.041966 0.187390
vt 0.067305 0.187390
vt 0.645029 0.808902
vt 0.663388 0.483697
vt 0.971116 0.808902
vt 0.645029 0.758171
vt 0.645029 0.766508
vt 0.644313 0.771405
vt 0.645029 0.856987
vt 0.645029 0.859634
vt 0.740515 0.341109
vt 0.971116 0.766508
vt 0.739176 0.863604
vt 0.740515 0.626284
vt 0.971116 0.856987
vt 0.613661 0.808902
vt 0.619911 0.808902
vt 0.613661 0.732870
vt 0.619911 0.732870
vt 0.613661 0.884935
vt 0.619911 0.884935
vt 0.595078 0.808902
vt 0.588828 0.808902
vt 0.595078 0.732870
vt 0.588828 0.732870
vt 0.595078 0.884935
vt 0.588828 0.884935
vt 0.516118 0.730080
vt 0.463845 0.730080
vt 0.516094 0.854314
vt 0.463821 0.854314
vt 0.463821 0.720646
vt 0.582743 0.730080
vt 0.582743 0.855525
vt 0.463845 0.730080
vt 0.516118 0.903244
vt 0.463845 0.903244
vt 0.582743 0.730080
vt 0.582743 0.903244
vt 0.583052 0.808902
vt 0.583052 0.743247
vt 0.583052 0.874558
vt 0.281543 0.700893
vt 0.342318 0.720785
vt 0.342318 0.854453
vt 0.463797 0.700893
vt 0.281543 0.700893
vt 0.354852 0.809126
vt 0.354852 0.903091
vt 0.463797 0.700893
vt 0.463797 0.903091
vt 0.463797 0.809126
vt 0.561214 0.727256
vt 0.583665 0.727256
vt 0.561214 0.670197
vt 0.577338 0.670197
vt 0.297597 0.643491
vt 0.315260 0.635671
vt 0.294358 0.638903
vt 0.315971 0.629334
vt 0.332040 0.638923
vt 0.335009 0.633902
vt 0.338150 0.652980
vt 0.341351 0.651828
vt 0.337917 0.682283
vt 0.345422 0.678781
vt 0.283584 0.670519
vt 0.283535 0.652006
vt 0.657493 0.862118
vt 0.657493 0.913458
vt 0.739144 0.910803
vt 0.428811 0.913663
vt 0.971089 0.933309
vt 0.428811 0.913663
vt 0.971089 0.933309
vt 0.047114 0.680347
vt 0.074930 0.083700
vt 0.089447 0.684178
vt 0.059023 0.680207
vt 0.505465 0.671004
vt 0.505465 0.702183
vt 0.274808 0.702183
vt 0.249848 0.637195
vt 0.204961 0.702183
vt 0.169297 0.057337
vt 0.091198 0.582495
vt 0.089409 0.603008
vt 0.121468 0.503062
vt 0.067305 0.187390
vt 0.645029 0.808902
vt 0.663388 0.483697
vt 0.971116 0.808902
vt 0.613661 0.808902
vt 0.619911 0.808902
vt 0.595078 0.808902
vt 0.588828 0.808902
vt 0.516118 0.730080
vt 0.463845 0.730080
vt 0.516094 0.854314
vt 0.463821 0.854314
vt 0.463821 0.720646
vt 0.582743 0.730080
vt 0.582743 0.855525
vt 0.583052 0.808902
vt 0.281543 0.700893
vt 0.342318 0.720785
vt 0.342318 0.854453
vt 0.463797 0.700893
vt 0.561214 0.727256
vt 0.583665 0.727256
vt 0.297597 0.643491
vt 0.315260 0.635671
vt 0.332040 0.638923
vt 0.338150 0.652980
vt 0.337917 0.682283
vt 0.283584 0.670519
vt 0.428811 0.913663
vt 0.971089 0.933309
vt 0.428811 0.913663
vt 0.971089 0.933309
s 0
usemtl Material.013
f 9/10/1 16/18/1 15/17/1 1/1/1
f 4/5/2 13/15/2 14/16/2 7/8/2
f 11/13/3 12/14/3 6/7/3 5/6/3
f 15/17/4 14/16/4 2/3/4 18/22/4 19/23/4 22/26/4 1/1/4
f 3/4/5 11/13/5 5/6/5 8/9/5
f 13/15/6 76/100/6 2/3/6 14/16/6
f 16/18/7 3/4/7 8/9/7 15/17/7
f 5/6/4 6/7/4 7/8/4 8/9/4
f 12/14/2 4/5/2 7/8/2 6/7/2
f 1/1/8 22/26/8 21/25/8 9/10/8
f 8/9/4 7/8/4 14/16/4 15/17/4
f 17/19/9 18/21/9 2/2/9 10/11/9
f 20/24/10 19/23/10 18/22/10 17/20/10
f 21/25/11 22/26/11 19/23/11 20/24/11
f 27/35/3 28/38/3 24/28/3
f 25/31/12 27/36/12 24/29/12 23/27/12
f 28/39/13 26/33/13 23/27/13 24/29/13
f 26/34/14 25/30/14 30/42/14 31/44/14
f 23/27/15 26/34/15 31/44/15 29/40/15
f 25/32/16 23/27/16 29/40/16 30/42/16
f 31/44/14 30/42/14 33/49/14 34/51/14
f 34/51/14 33/49/14 44/65/14 45/66/14
f 29/41/17 31/45/17 34/50/17 32/46/17
f 30/43/18 29/41/18 32/46/18 33/48/18
f 41/62/3 42/63/3 38/58/3 37/57/3
f 37/57/19 38/58/19 36/54/19 35/52/19
f 39/59/20 41/62/20 37/57/20 35/53/20
f 42/63/21 40/60/21 36/54/21 38/58/21
f 35/53/22 36/55/22 40/61/22 39/59/22
f 43/64/23 45/66/23 44/65/23
f 32/47/24 34/51/24 45/66/24 43/64/24
f 33/49/25 32/47/25 43/64/25 44/65/25
f 51/74/26 52/75/26 36/55/26 48/70/26
f 48/70/27 36/56/27 47/68/27 46/67/27
f 49/71/20 51/74/20 48/70/20 46/67/20
f 52/76/28 50/72/28 47/68/28 36/56/28
f 53/77/29 54/78/29 56/80/29 55/79/29
f 57/81/30 58/82/30 60/84/30 59/83/30
f 60/84/31 58/82/31 61/85/31 62/86/31
f 62/86/32 61/85/32 63/87/32 64/88/32
f 64/88/33 63/87/33 65/89/33 66/90/33
f 57/81/34 59/83/34 68/92/34 67/91/34
f 69/93/4 28/37/4 71/95/4 70/94/4
f 72/96/35 73/97/35 75/99/35 74/98/35
f 2/3/36 76/100/36 10/12/36
f 9/10/37 77/101/37 84/109/37 16/18/37
f 4/5/2 81/106/2 83/108/2 13/15/2
f 11/13/3 79/104/3 80/105/3 12/14/3
f 84/109/14 77/101/14 87/113/14 86/112/14 85/111/14 78/103/14 83/108/14
f 3/4/38 82/107/38 79/104/38 11/13/38
f 13/15/39 83/108/39 78/103/39 76/100/39
f 16/18/40 84/109/40 82/107/40 3/4/40
f 79/104/14 82/107/14 81/106/14 80/105/14
f 12/14/2 80/105/2 81/106/2 4/5/2
f 77/101/41 9/10/41 21/25/41 87/113/41
f 82/107/14 84/109/14 83/108/14 81/106/14
f 17/19/42 10/11/42 78/102/42 85/110/42
f 20/24/43 17/20/43 85/111/43 86/112/43
f 21/25/44 20/24/44 86/112/44 87/113/44
f 27/35/3 89/115/3 28/38/3
f 25/31/45 88/114/45 89/116/45 27/36/45
f 28/39/46 89/116/46 88/114/46 26/33/46
f 88/114/47 90/117/47 31/44/47 26/34/47
f 25/32/48 30/42/48 90/117/48 88/114/48
f 90/118/49 91/119/49 34/50/49 31/45/49
f 30/43/50 33/48/50 91/119/50 90/118/50
f 41/62/3 94/126/3 95/127/3 42/63/3
f 94/126/51 92/121/51 93/123/51 95/127/51
f 39/59/20 92/122/20 94/126/20 41/62/20
f 42/63/52 95/127/52 93/123/52 40/60/52
f 92/122/53 39/59/53 40/61/53 93/124/53
f 96/128/23 44/65/23 45/66/23
f 91/120/54 96/128/54 45/66/54 34/51/54
f 33/49/55 44/65/55 96/128/55 91/120/55
f 51/74/56 99/132/56 93/124/56 52/75/56
f 99/132/57 97/129/57 98/130/57 93/125/57
f 49/71/20 97/129/20 99/132/20 51/74/20
f 52/76/58 93/125/58 98/130/58 50/72/58
f 100/133/59 55/79/59 56/80/59 101/134/59
f 102/135/60 59/83/60 60/84/60 103/136/60
f 60/84/61 62/86/61 104/137/61 103/136/61
f 62/86/62 64/88/62 105/138/62 104/137/62
f 64/88/63 66/90/63 106/139/63 105/138/63
f 102/135/64 107/140/64 68/92/64 59/83/64
f 108/141/35 110/143/35 111/144/35 109/142/35
f 78/103/65 10/12/65 76/100/65
f 97/129/66 49/71/66 46/67/66 47/69/66 50/73/66 98/131/66
o Plane
v 0.485843 1.391481 0.000000
v 0.840484 1.391481 0.000000
v 0.485843 1.440994 0.000000
v 0.840484 1.440994 0.000000
vn -0.0000 -0.0000 1.0000
vt 0.000000 0.000000
vt 1.000000 0.000000
vt 0.000000 1.000000
vt 1.000000 1.000000
s 0
f 112/145/67 113/146/67 115/148/67 114/147/67
o HC_Trigger&Hammer
v -0.091593 1.250466 0.000000
v -0.065287 1.198490 0.000000
v -0.159694 1.337236 0.000000
v -0.036171 1.388041 0.000000
v -0.095807 1.116113 0.000000
v -0.070071 1.129177 0.000000
v 0.025102 1.036609 0.000000
v -1.061045 1.611033 0.033930
v -1.039282 1.675308 0.033930
v -1.061045 1.611033 -0.033930
v -1.039282 1.675308 -0.033930
v -0.922003 1.401001 0.033930
v -0.913751 1.653545 0.033930
v -0.922003 1.401001 -0.033930
v -0.913751 1.653545 -0.033930
v -1.167019 1.624905 0.033930
v -1.168676 1.643240 0.033930
v -1.167019 1.624905 -0.033930
v -1.168676 1.643240 -0.033930
vn -0.0000 -0.0000 1.0000
vn -0.0000 -0.0000 -1.0000
vn 0.9995 -0.0327 -0.0000
vn -0.8338 -0.5520 -0.0000
vn 0.1708 0.9853 -0.0000
vn -0.9959 -0.0900 -0.0000
vn -0.2406 0.9706 -0.0000
vn -0.1298 -0.9915 -0.0000
vt 0.486015 0.771260
vt 0.489819 0.765807
vt 0.477857 0.778780
vt 0.485282 0.793879
vt 0.490457 0.752438
vt 0.491916 0.755926
vt 0.502300 0.749378
vt 0.400861 0.757575
vt 0.400211 0.767872
vt 0.400861 0.757575
vt 0.400211 0.767872
vt 0.418680 0.737683
vt 0.410354 0.773085
vt 0.418680 0.737683
vt 0.410354 0.773085
vt 0.392457 0.752553
vt 0.391685 0.754976
vt 0.392457 0.752553
vt 0.391685 0.754976
s 0
usemtl Material.015
f 116/149/68 117/150/68 119/152/68 118/151/68
f 117/150/68 116/149/68 120/153/68 121/154/68
f 121/154/68 120/153/68 122/155/68
f 123/156/68 124/157/68 132/165/68 131/164/68
f 125/158/69 126/159/69 130/163/69 129/162/69
f 129/162/70 130/163/70 128/161/70 127/160/70
f 127/160/68 128/161/68 124/157/68 123/156/68
f 125/158/71 129/162/71 127/160/71 123/156/71
f 130/163/72 126/159/72 124/157/72 128/161/72
f 131/164/73 132/165/73 134/167/73 133/166/73
f 124/157/74 126/159/74 134/167/74 132/165/74
f 125/158/75 123/156/75 131/164/75 133/166/75
f 126/159/69 125/158/69 133/166/69 134/167/69
o HCSlide
v -0.947754 1.819573 0.075114
v -0.953158 1.942703 0.075114
v -0.953158 1.874259 0.000000
v -0.653389 1.816870 0.011150
v -0.656992 1.836437 0.011150
v -0.949569 1.942111 0.041382
v -0.949569 1.942111 0.041382
v -0.947754 1.819573 0.000000
v -0.953158 1.874259 0.000000
v -0.653389 1.816870 0.000000
v -0.656992 1.836437 0.000000
v -0.978250 1.438201 0.129278
v -0.849376 1.720490 0.129277
v 0.492766 1.438201 0.129278
v 0.492180 1.720490 0.129277
v -1.048030 1.438201 0.000000
v -0.912973 1.831580 0.000000
v 0.492766 1.438201 0.000000
v 0.492180 1.831580 0.000000
v -0.947754 1.819573 -0.075114
v -0.953158 1.942703 -0.075114
v -0.653389 1.816870 -0.011150
v -0.656992 1.836437 -0.011150
v -0.949569 1.942111 -0.041382
v -0.949569 1.942111 -0.041382
v -0.978250 1.438201 -0.129278
v -0.849376 1.720490 -0.129277
v 0.492766 1.438201 -0.129278
v 0.492180 1.720490 -0.129277
v 0.434436 1.720490 0.129277
v -0.008395 1.720490 0.129277
v -0.008395 1.831580 0.000000
v 0.431441 1.831580 0.000000
vn 0.9835 0.1811 -0.0000
vn 0.2141 0.0135 0.9767
vn -0.0092 -1.0000 -0.0000
vn 0.1225 0.7775 -0.6169
vn -0.9978 -0.0607 0.0276
vn -0.9873 0.1176 -0.1071
vn 1.0000 0.0017 0.0007
vn -0.0000 -0.0000 1.0000
vn -0.0000 -1.0000 -0.0000
vn -0.0000 0.7584 0.6517
vn -0.7857 0.3069 0.5372
vn 0.2141 0.0135 -0.9767
vn 0.1225 0.7775 0.6169
vn -0.9978 -0.0607 -0.0276
vn -0.9873 0.1176 0.1071
vn 1.0000 0.0017 -0.0007
vn -0.0000 -0.0000 -1.0000
vn -0.0000 0.7584 -0.6517
vn -0.7857 0.3069 -0.5372
vt 0.087945 0.919216
vt 0.092415 0.913563
vt 0.091132 0.961645
vt 0.091132 0.937563
vt 0.162293 0.912377
vt 0.177870 0.917690
vt 0.176769 0.928741
vt 0.161438 0.920964
vt 0.091984 0.961385
vt 0.087945 0.919216
vt 0.092415 0.913563
vt 0.091132 0.937563
vt 0.177870 0.917690
vt 0.176769 0.928741
vt 0.161438 0.920964
vt 0.078628 0.703828
vt 0.117998 0.863257
vt 0.507554 0.703828
vt 0.507375 0.863257
vt 0.065265 0.703828
vt 0.098570 0.925997
vt 0.507554 0.703828
vt 0.507375 0.925997
vt 0.358475 0.925997
vt 0.087945 0.919216
vt 0.092415 0.913563
vt 0.091132 0.961645
vt 0.162293 0.912377
vt 0.177870 0.917690
vt 0.176769 0.928741
vt 0.161438 0.920964
vt 0.091984 0.961385
vt 0.078628 0.703828
vt 0.117998 0.863257
vt 0.507554 0.703828
vt 0.507375 0.863257
vt 0.358475 0.863257
vt 0.490615 0.863257
vt 0.362087 0.863257
vt 0.265886 0.925997
vt 0.361741 0.925997
vt 0.489704 0.925997
vt 0.347240 0.925997
s 0
usemtl Material.014
f 144/180/76 145/181/76 139/174/76 138/173/76
f 138/172/77 139/175/77 136/170/77 135/169/77
f 142/177/78 144/180/78 138/173/78 135/168/78
f 145/182/79 143/179/79 136/170/79 139/175/79
f 135/169/80 136/170/80 143/179/80 142/178/80
f 140/176/81 137/171/81 136/170/81
f 152/189/82 153/190/82 149/186/82 148/185/82
f 148/185/83 149/186/83 164/205/83 165/206/83 147/184/83 146/183/83
f 150/187/84 152/189/84 148/185/84 146/183/84
f 153/190/85 167/209/85 164/205/85 149/186/85
f 146/183/86 147/184/86 151/188/86 150/187/86
f 144/180/76 156/196/76 157/197/76 145/181/76
f 156/195/87 154/193/87 155/194/87 157/198/87
f 142/177/78 154/192/78 156/196/78 144/180/78
f 145/182/88 157/198/88 155/194/88 143/179/88
f 154/193/89 142/178/89 143/179/89 155/194/89
f 158/199/90 155/194/90 137/171/90
f 152/189/91 162/202/91 163/203/91 153/190/91
f 162/202/92 160/200/92 161/201/92 163/203/92
f 150/187/84 160/200/84 162/202/84 152/189/84
f 153/191/93 163/204/93 161/201/93 151/188/93 166/207/93 167/210/93
f 160/200/94 150/187/94 151/188/94 161/201/94
f 165/206/85 166/208/85 151/188/85 147/184/85
l 141 140
l 143 137
l 159 158
l 155 159
l 136 141
o HCMag
v -1.006372 0.312549 0.084355
v -0.668015 1.522783 0.084355
v -0.725197 0.257084 0.084355
v -0.352101 1.518474 0.084355
v -0.520468 0.215113 0.000000
v -0.607478 0.232834 0.087587
v -1.006372 0.312549 0.000000
v -0.668015 1.455385 0.000000
v -0.620703 0.235394 0.000000
v -0.274636 1.451076 0.000000
v -1.006372 0.312549 -0.084355
v -0.668015 1.522783 -0.084355
v -0.725197 0.257084 -0.084355
v -0.352101 1.518474 -0.084355
v -0.607478 0.232834 -0.087587
vn 0.6200 -0.1800 0.7637
vn -0.0000 -0.0000 1.0000
vn -0.1951 -0.9808 0.0053
vn 0.0095 0.7833 -0.6215
vn 0.2002 0.9798 -0.0016
vn -0.9552 0.2747 -0.1097
vn 0.6200 -0.1800 -0.7637
vn -0.0000 -0.0000 -1.0000
vn -0.1951 -0.9808 -0.0053
vn 0.0095 0.7833 0.6215
vn 0.2002 0.9798 0.0016
vn -0.9552 0.2747 0.1097
vt 0.143126 0.106217
vt 0.104564 0.092939
vt 0.371360 0.906178
vt 0.485503 0.080572
vt 0.261473 0.102375
vt 0.772991 0.876989
vt 0.357339 0.099259
vt 0.316603 0.100560
vt 0.143126 0.106217
vt 0.104564 0.092939
vt 0.384170 0.862470
vt 0.643054 0.075278
vt 0.310419 0.100731
vt 0.899544 0.839784
vt 0.143126 0.106217
vt 0.104564 0.092939
vt 0.371360 0.906178
vt 0.485503 0.080572
vt 0.261473 0.102375
vt 0.772991 0.876989
vt 0.316603 0.100560
s 0
usemtl Material.016
f 176/222/95 177/224/95 171/216/95 170/214/95
f 170/214/96 171/216/96 169/213/96 168/212/96
f 174/219/97 176/223/97 170/215/97 168/211/97
f 177/224/98 175/221/98 169/213/98 171/216/98
f 176/223/99 170/215/99 173/218/99 172/217/99
f 168/212/100 169/213/100 175/221/100 174/220/100
f 176/222/101 180/228/101 181/230/101 177/224/101
f 180/228/102 178/226/102 179/227/102 181/230/102
f 174/219/103 178/225/103 180/229/103 176/223/103
f 177/224/104 181/230/104 179/227/104 175/221/104
f 176/223/105 172/217/105 182/231/105 180/229/105
f 178/226/106 174/220/106 175/221/106 179/227/106
o HCMagFull
v -1.609489 1.529159 0.065091
v -1.348186 1.535069 0.065091
v -1.610960 1.594233 0.000001
v -1.349657 1.600143 0.000001
v -1.608017 1.464085 0.000001
v -1.346714 1.469995 0.000000
v -1.222341 1.537915 0.036120
v -1.223200 1.575895 0.000001
v -1.221482 1.499935 0.000000
v -1.609489 1.529159 -0.065090
v -1.348186 1.535069 -0.065090
v -1.222341 1.537915 -0.036119
v -1.950134 0.315893 0.084355
v -1.611777 1.526126 0.084355
v -1.668959 0.260427 0.084355
v -1.295863 1.521818 0.084355
v -1.464229 0.218457 0.000000
v -1.551239 0.236177 0.087587
v -1.950134 0.315893 0.000000
v -1.611777 1.458728 0.000000
v -1.564465 0.238738 0.000000
v -1.218398 1.454420 0.000000
vn 0.0160 -0.7069 0.7071
vn -0.9997 -0.0226 -0.0000
vn -0.0160 0.7069 0.7071
vn 0.1712 -0.6884 0.7049
vn 0.1399 0.6954 0.7049
vn 0.0160 -0.7069 -0.7071
vn -0.0160 0.7069 -0.7071
vn 0.1712 -0.6884 -0.7049
vn 0.1399 0.6954 -0.7049
vn 0.9997 0.0226 -0.0000
vn 0.6200 -0.1800 0.7637
vn -0.0000 -0.0000 1.0000
vn -0.1951 -0.9808 0.0053
vn 0.0095 0.7833 -0.6215
vn 0.2002 0.9798 -0.0016
vn -0.9552 0.2747 -0.1097
vt 0.165727 0.426424
vt 0.439685 0.225023
vt 0.439685 0.572328
vt 0.441113 0.677436
vt 0.063811 0.335265
vt 0.353193 0.225023
vt 0.353193 0.572328
vt 0.379531 0.677436
vt 0.261937 0.321079
vt 0.526176 0.225023
vt 0.526176 0.572328
vt 0.517908 0.676501
vt 0.441113 0.796530
vt 0.413001 0.749728
vt 0.405171 0.796530
vt 0.427340 0.794653
vt 0.477056 0.796530
vt 0.462011 0.735208
vt 0.160170 0.231373
vt 0.439685 0.225023
vt 0.439685 0.572328
vt 0.441113 0.677436
vt 0.441113 0.796530
vt 0.475487 0.781275
vt 0.143126 0.106217
vt 0.104564 0.092939
vt 0.371360 0.906178
vt 0.485503 0.080572
vt 0.261473 0.102375
vt 0.772991 0.876989
vt 0.357339 0.099259
vt 0.316603 0.100560
vt 0.143126 0.106217
vt 0.104564 0.092939
vt 0.384170 0.862470
vt 0.643054 0.075278
vt 0.310419 0.100731
vt 0.899544 0.839784
s 0
usemtl Material.017
f 187/241/107 188/242/107 184/234/107 183/233/107
f 183/232/108 185/236/108 192/250/108 187/240/108
f 183/233/109 184/234/109 186/238/109 185/237/109
f 184/235/110 188/243/110 191/248/110 189/244/110
f 186/239/111 184/235/111 189/244/111 190/246/111
f 187/241/112 192/251/112 193/252/112 188/242/112
f 192/251/113 185/237/113 186/238/113 193/252/113
f 193/253/114 194/254/114 191/248/114 188/243/114
f 186/239/115 190/246/115 194/254/115 193/253/115
f 190/247/116 189/245/116 191/249/116 194/255/116
usemtl Material.016
f 203/267/117 204/269/117 198/261/117 197/259/117
f 197/259/118 198/261/118 196/258/118 195/257/118
f 201/264/119 203/268/119 197/260/119 195/256/119
f 204/269/120 202/266/120 196/258/120 198/261/120
f 203/268/121 197/260/121 200/263/121 199/262/121
f 195/257/122 196/258/122 202/266/122 201/265/122
l 186 188
o HighCaliberBullet
v 0.598761 0.895883 0.065091
v 0.599760 1.157251 0.065091
v 0.533671 0.896132 0.000000
v 0.534670 1.157500 0.000000
v 0.663851 0.895635 0.000000
v 0.664850 1.157003 0.000000
v 0.600241 1.283127 0.036120
v 0.562252 1.283273 0.000000
v 0.638231 1.282982 0.000000
v 0.598761 0.895883 -0.065090
v 0.599760 1.157251 -0.065090
v 0.600241 1.283127 -0.036119
vn 0.7071 -0.0027 0.7071
vn -0.0038 -1.0000 -0.0000
vn -0.7071 0.0027 0.7071
vn 0.6927 0.1530 0.7049
vn -0.6915 0.1583 0.7049
vn 0.7071 -0.0027 -0.7071
vn -0.7071 0.0027 -0.7071
vn 0.6927 0.1530 -0.7049
vn -0.6915 0.1583 -0.7049
vn 0.0038 1.0000 -0.0000
vt 0.165727 0.426424
vt 0.439685 0.225023
vt 0.439685 0.572328
vt 0.441113 0.677436
vt 0.063811 0.335265
vt 0.353193 0.225023
vt 0.353193 0.572328
vt 0.379531 0.677436
vt 0.261937 0.321079
vt 0.526176 0.225023
vt 0.526176 0.572328
vt 0.517908 0.676501
vt 0.441113 0.796530
vt 0.413001 0.749728
vt 0.405171 0.796530
vt 0.427340 0.794653
vt 0.477056 0.796530
vt 0.462011 0.735208
vt 0.160170 0.231373
vt 0.439685 0.225023
vt 0.439685 0.572328
vt 0.441113 0.677436
vt 0.441113 0.796530
vt 0.475487 0.781275
s 0
usemtl Material.017
f 209/279/123 210/280/123 206/272/123 205/271/123
f 205/270/124 207/274/124 214/288/124 209/278/124
f 205/271/125 206/272/125 208/276/125 207/275/125
f 206/273/126 210/281/126 213/286/126 211/282/126
f 208/277/127 206/273/127 211/282/127 212/284/127
f 209/279/128 214/289/128 215/290/128 210/280/128
f 214/289/129 207/275/129 208/276/129 215/290/129
f 215/291/130 216/292/130 213/286/130 210/281/130
f 208/277/131 212/284/131 216/292/131 215/291/131
f 212/285/132 211/283/132 213/287/132 216/293/132
l 208 210
